<svg xmlns="http://www.w3.org/2000/svg" width="512" height="512" style="overflow:visible" class="fl-svgdocument"><defs transform="translate(-53.4736824 -53.4736824) scale(1.20888)" data-uid="o_eml0li5k7_4"><linearGradient id="a" x1="50%" y1="0%" x2="50%" y2="100%" data-uid="o_eml0li5k7_5"><stop offset="0%" stop-color="#14C5FD" data-uid="o_eml0li5k7_6"/><stop offset="51%" stop-color="#1973DB" data-uid="o_eml0li5k7_7"/><stop offset="100%" stop-color="#14C5FD" data-uid="o_eml0li5k7_8"/></linearGradient></defs><path fill="#141414" data-type="circle" data-cx="50" data-cy="50" data-r="50" d="M174.28912354 189.4556489a81.71087503 81.71087503 0 1 0 163.42175006 0 81.71087503 81.71087503 0 1 0-163.42175006 0" data-uid="o_eml0li5k7_9"/><g data-uid="o_eml0li5k7_10"><path d="M93.5 61.141c-6.237 0-9.575-8.282-13.109-17.05-3.75-9.306-7.629-18.929-15.892-18.929-8.273 0-11.963 11.616-15.818 24.023-3.404 3.244-6.709 6.241-13.188 6.241-6.58 0-9.889-3.672-13.393-7.56-1.279-1.418-2.604-2.88-4.108-4.184l-.03-.039c-.765-1.058-1.578-2.015-2.42-2.847l-.001.001c-.111-.111-.242-.198-.382-.271-2.288-2.835-5.057-4.667-8.659-4.667-.829 0-1.5.671-1.5 1.5s.671 1.5 1.5 1.5c6.236 0 9.574 8.282 13.107 17.05 3.75 9.306 7.628 18.929 15.89 18.929 8.271 0 11.962-11.613 15.816-24.017 3.406-3.246 6.711-6.246 13.18-6.246 6.583 0 9.89 3.667 13.391 7.548 1.284 1.424 2.614 2.89 4.125 4.197l.029.038c.765 1.058 1.578 2.015 2.42 2.847l.001-.001c.11.11.24.197.38.27 2.289 2.836 5.058 4.668 8.661 4.668.829 0 1.5-.671 1.5-1.5s-.671-1.501-1.5-1.501zM64.499 28.163c4.899 0 8.008 5.115 10.829 11.555-2.7-3.437-6.026-5.918-10.834-5.918-3.627 0-6.408 1.555-8.711 3.946 2.327-5.564 5.055-9.583 8.716-9.583zM35.492 58.426c4.178 0 7.232-1.06 9.755-2.595-2.529 4.244-5.443 7.369-9.755 7.369-5.179 0-8.335-3.982-11.22-8.894 2.785 2.327 6.248 4.12 11.22 4.12zm.006 13.411c-4.894 0-8.001-5.105-10.82-11.537 2.694 3.427 6.015 5.9 10.815 5.9 3.631 0 6.416-1.553 8.72-3.943-2.328 5.563-5.056 9.58-8.715 9.58zm28.996-30.263c-4.17 0-7.22 1.059-9.741 2.594 2.528-4.243 5.438-7.368 9.741-7.368 5.181 0 8.342 3.984 11.232 8.899-2.786-2.329-6.251-4.125-11.232-4.125z" transform="matrix(1.57144 0 0 1.57144 177.42779541 110.88344574)" data-uid="o_eml0li5k7_11" fill="url(#a)"/></g><path text-anchor="middle" font-size="48" font-family="Open Sans" font-weight="400" letter-spacing="6" data-uid="o_eml0li5k7_12" d="M57.98756124 386.94350242v17.14988137h-2.22674997v-17.14988137h-6.0551973v-1.97561275h14.33714456v1.97561275h-6.05519729Zm23.93320218 17.14988137h-2.1709417v-9.27533447q0-1.75237968-.79805826-2.61182704-.79805826-.86502818-2.49462967-.86502818-2.26581576 0-3.30384958 1.22778194-1.03803382 1.22778194-1.03803382 4.0293571v7.49505065h-2.1709417v-20.35327606h2.1709417v6.161233q0 1.11058458-.10603572 1.84167291h.12835902q.6417951-1.032453 1.82493043-1.62402065 1.18313533-.5971485 2.70112027-.5971485 2.62856952 0 3.94564469 1.25010526 1.31149434 1.25010524 1.31149434 3.967968v9.35346604Zm13.8688783.26229887q-3.1810714 0-5.01716348-1.93654697-1.83609208-1.93654697-1.83609208-5.3743364 0-3.46569356 1.70215223-5.50827625 1.70773307-2.04258268 4.5874398-2.04258268 2.69553944 0 4.26375182 1.77470299 1.56821239 1.77470298 1.56821239 4.67673302v1.37288344h-9.87248296q.0613891 2.5225338 1.27242856 3.83402815 1.21103945 1.30591352 3.4098853 1.30591352 2.3160432 0 4.57627813-.96548307v1.93096614q-1.14965036.50227443-2.17652253.71434586-1.02687217.21765225-2.47788719.21765225Zm-.59156767-13.0423927q-1.72447554 0-2.7513477 1.12732706-1.02687218 1.12174622-1.21103947 3.11410146h7.49505066q0-2.05374433-.91525563-3.14758642-.91525562-1.0938421-2.61740786-1.0938421Zm40.1420166 3.19223305q0 4.59302062-2.32162404 7.22159013-2.32162403 2.62856952-6.451436 2.62856952-4.22468605 0-6.52398677-2.5839229-2.2937199-2.5839229-2.2937199-7.29414089 0-4.66557137 2.29930073-7.23833261 2.30488155-2.56718042 6.54072924-2.56718042 4.12423115 0 6.43469353 2.61182703 2.3160432 2.61740786 2.3160432 7.22159014Zm-15.23565771 0q0 3.88425559 1.65192479 5.8933533 1.65750562 2.00909773 4.81067287 2.00909773 3.17549056 0 4.79951122-2.0035169 1.61843983-2.00351689 1.61843983-5.89893413 0-3.85635146-1.612859-5.85428752-1.612859-1.99235524-4.78276874-1.99235524-3.17549056 0-4.83299618 2.00909772-1.6519248 2.00351689-1.6519248 5.83754504Zm29.19487563 9.85015965q-1.40078758 0-2.55601876-.51901691-1.16081202-.51343609-1.9421278-1.58495487h-.16184398q.16184398 1.25568607.16184398 2.3774323v5.89893414h-2.1709417v-20.77183809h1.76354133l.30136466 1.9644511h.10603571q.83712405-1.1775545 1.94770862-1.70215223 1.11058458-.52459774 2.55043794-.52459774 2.8518026 0 4.39769168 1.95328945 1.5514699 1.94770862 1.5514699 5.46362963 0 3.5326635-1.57379321 5.48595294-1.57937404 1.95887028-4.37536837 1.95887028Zm-.31252631-13.01448856q-2.19884584 0-3.18107139 1.21662028-.98222555 1.21662029-1.00454886 3.87309394v.47995112q0 3.02480824 1.00454886 4.32514093 1.01012969 1.30033269 3.23129883 1.30033269 1.8584154 0 2.90761087-1.50124247 1.0547763-1.50682329 1.0547763-4.14655446 0-2.68437778-1.0547763-4.11865032-1.04919548-1.42869171-2.95783831-1.42869171Zm19.46261095 13.01448856q-3.18107139 0-5.01716347-1.93654697-1.83609208-1.93654697-1.83609208-5.3743364 0-3.46569356 1.70215223-5.50827625 1.70773306-2.04258268 4.5874398-2.04258268 2.69553943 0 4.26375182 1.77470299 1.56821239 1.77470298 1.56821239 4.67673302v1.37288344h-9.87248296q.0613891 2.5225338 1.27242855 3.83402815 1.21103946 1.30591352 3.4098853 1.30591352 2.3160432 0 4.57627814-.96548307v1.93096614q-1.14965036.50227443-2.17652253.71434586-1.02687217.21765225-2.47788719.21765225Zm-.59156766-13.0423927q-1.72447554 0-2.75134771 1.12732706-1.02687217 1.12174622-1.21103946 3.11410146h7.49505066q0-2.05374433-.91525563-3.14758642-.91525563-1.0938421-2.61740786-1.0938421Zm24.890314 12.78009383h-2.1709417v-9.27533447q0-1.75237968-.79805825-2.61182704-.79805826-.86502818-2.49462967-.86502818-2.24907328 0-3.29826876 1.21662028-1.04361465 1.21662029-1.04361465 4.01261462v7.52295479h-2.1709417v-14.33714456h1.76354133l.3515921 1.9644511h.10603572q.6641184-1.06035712 1.86957704-1.64076313 1.20545863-.58598684 2.68437779-.58598684 2.58950372 0 3.89541724 1.25010525 1.30591352 1.25010525 1.30591352 3.99587213v9.35346605Zm29.23777825-5.08971422q0 2.52811463-1.83051126 3.94006386-1.83609208 1.41194923-4.97251685 1.41194923-3.39872364 0-5.23481573-.87618984v-2.1486184q1.1775545.50227443 2.56718042.78689661 1.3840451.290203 2.74576689.290203 2.22116914 0 3.3484962-.8482857 1.12732705-.84270487 1.12732705-2.34394734 0-.9933872-.40181954-1.62960148-.39623872-.63621428-1.33381766-1.17197367-.93757893-.5357594-2.84622177-1.21662029-2.6676353-.95432141-3.81170484-2.26023493-1.14406953-1.31149434-1.14406953-3.41546612 0-2.2100075 1.66308645-3.51592101 1.65750561-1.31149435 4.39211084-1.31149435 2.8518026 0 5.24597738 1.04919548l-.69202255 1.93654697q-2.36627064-.99896803-4.60418227-.99896803-1.76912216 0-2.76250936.75899247-.99338721.75899247-.99338721 2.1095526 0 .9933872.36833458 1.62960149.36275376.63063345 1.23336277 1.16081201.87060901.53017857 2.66205448 1.17197367 3.00806575 1.07151878 4.14097363 2.29930072 1.13290788 1.23336277 1.13290788 3.19223305Zm19.3061734-2.09281013q0 3.50475936-1.76912216 5.47479129-1.76354134 1.97003193-4.8776428 1.97003193-1.91980449 0-3.41546612-.90409398-1.49008081-.90409397-2.29930073-2.58950372-.80921991-1.68540976-.80921991-3.95122552 0-3.50475935 1.75237968-5.4580488 1.75237967-1.95887028 4.86090031-1.95887028 3.01364658 0 4.78276874 2.0035169 1.77470298 2.00351689 1.77470298 5.41340218Zm-10.92167844 0q0 2.74576689 1.09942292 4.18562025 1.09384209 1.43985337 3.225718 1.43985337 2.13187592 0 3.24246049-1.43427254 1.10500374-1.42869171 1.10500374-4.19120108 0-2.73460523-1.10500374-4.15213528-1.11058457-1.41753006-3.2647838-1.41753006-2.1318759 0-3.22013717 1.40078758-1.08268044 1.39520675-1.08268044 4.16887776Zm17.91567547-7.1546202h2.19884584v9.3032386q0 1.75237967.79805826 2.61182703.79805826.86502819 2.5002105.86502819 2.24907327 0 3.2871071-1.22778194 1.04361464-1.23336277 1.04361464-4.01819544v-7.53411645h2.1709417v14.33714456h-1.79144546l-.31810714-1.92538532h-.11719737q-.66411841 1.06035713-1.84725373 1.62402066-1.18871616.56366353-2.70112027.56366353-2.61740786 0-3.91774055-1.24452442-1.30591352-1.2389436-1.30591352-3.97354882v-9.38137019Zm26.48712813-.26229888q.95432142 0 1.7133139.15626316l-.29578384 2.01467855q-.89293232-.19532895-1.57379321-.19532895-1.7356372 0-2.9745808 1.41194923-1.23336276 1.41753006-1.23336276 3.52150184v7.6903796h-2.1709417v-14.33714456h1.79144546l.2455564 2.65647365h.1060357q.79805827-1.40078757 1.9198045-2.15978005 1.12732705-.75899247 2.47230635-.75899247Zm13.47420919 14.8617423q-3.11410147 0-4.82183453-1.91422366-1.70215224-1.91980449-1.70215224-5.42456384 0-3.59963342 1.73005637-5.5585037 1.7356372-1.9644511 4.9390319-1.9644511 1.032453 0 2.06490599.22323308 1.032453.22323308 1.62402065.52459774l-.66969924 1.84167291q-.71992668-.28462218-1.56821238-.4743703-.8482857-.18974811-1.5068233-.18974811-4.3642067 0-4.3642067 5.56966534 0 2.645312 1.06593795 4.05726123 1.06593796 1.41194923 3.15874808 1.41194923 1.79144547 0 3.67218417-.77015413v1.91980449q-1.43985337.74783082-3.62195672.74783082Zm16.43082668 0q-3.18107139 0-5.01716347-1.93654697-1.83609208-1.93654697-1.83609208-5.3743364 0-3.46569356 1.70215223-5.50827625 1.70773306-2.04258268 4.5874398-2.04258268 2.69553943 0 4.26375182 1.77470299 1.56821239 1.77470298 1.56821239 4.67673302v1.37288344h-9.87248296q.0613891 2.5225338 1.27242855 3.83402815 1.21103946 1.30591352 3.4098853 1.30591352 2.3160432 0 4.57627814-.96548307v1.93096614q-1.14965036.50227443-2.17652253.71434586-1.02687217.21765225-2.47788719.21765225Zm-.59156766-13.0423927q-1.72447554 0-2.75134771 1.12732706-1.02687217 1.12174622-1.21103946 3.11410146h7.49505066q0-2.05374433-.91525563-3.14758642-.91525563-1.0938421-2.61740786-1.0938421Zm37.87062 12.78009383h-2.30488155l-2.38301313-6.08310143h-7.66247546l-2.355109 6.08310143h-2.24907328l7.56202058-19.2036257h1.86957705l7.5229548 19.2036257Zm-11.56347354-8.0810375h6.18355632l-2.22116915-5.92683827q-.4353045-1.12732705-.89293232-2.76250936-.28462218 1.25568608-.82038157 2.76250936l-2.24907328 5.92683828Zm26.46149121 4.16887777q0 2.0035169-1.49566163 3.08619733-1.49008081 1.08826127-4.18562025 1.08826127-2.8518026 0-4.44791912-.90409398v-2.01467854q1.03803382.52459774 2.22116915.8259624 1.18313532.30136465 2.28255824.30136465 1.6965714 0 2.61182703-.54134022.92083646-.54692104.92083646-1.65750562 0-.83712405-.73108834-1.43427253-.7255075-.59156767-2.82947929-1.4063684-2.00351689-.74225-2.84622177-1.3003327-.84270487-.55250187-1.25568607-1.2612669-.4129812-.70876503-.4129812-1.68540975 0-1.75237968 1.42869171-2.7680902 1.42311089-1.0157105 3.91215973-1.0157105 2.3160432 0 4.5260507.94315976l-.77573496 1.76912215q-2.15419922-.89293232-3.9065789-.89293232-1.54588908 0-2.33278568.48553195-.78131578.48553195-.78131578 1.33381766 0 .57482518.290203.98222555.29578383.40181954.9487406.77015412.65853758.36833458 2.51137214 1.06035713 2.55043794.92641728 3.44895109 1.86957705.89851314.94315976.89851314 2.36627064Zm16.12771802 0q0 2.0035169-1.49566163 3.08619733-1.49008081 1.08826127-4.18562025 1.08826127-2.8518026 0-4.44791912-.90409398v-2.01467854q1.03803382.52459774 2.22116915.8259624 1.18313532.30136465 2.28255824.30136465 1.6965714 0 2.61182703-.54134022.92083646-.54692104.92083646-1.65750562 0-.83712405-.73108834-1.43427253-.7255075-.59156767-2.82947929-1.4063684-2.00351689-.74225-2.84622177-1.3003327-.84270487-.55250187-1.25568607-1.2612669-.4129812-.70876503-.4129812-1.68540975 0-1.75237968 1.42869171-2.7680902 1.42311089-1.0157105 3.91215973-1.0157105 2.3160432 0 4.5260507.94315976l-.77573496 1.76912215q-2.15419922-.89293232-3.9065789-.89293232-1.54588908 0-2.33278568.48553195-.78131578.48553195-.78131578 1.33381766 0 .57482518.290203.98222555.29578383.40181954.9487406.77015412.65853758.36833458 2.51137214 1.06035713 2.55043794.92641728 3.44895108 1.86957705.89851315.94315976.89851315 2.36627064Zm9.05122939-10.42498483v14.33714456h-2.1709417v-14.33714456h2.1709417Zm-2.355109-3.88425559q0-.74224999.36275376-1.09384209.36833458-.34601127.91525563-.34601127.52459773 0 .90409397.35717292.37949624.3515921.37949624 1.08268044 0 .73108834-.37949624 1.0938421-.37949624.35717292-.90409397.35717292-.54692105 0-.91525563-.35717293-.36275376-.36275375-.36275376-1.09384209Zm19.5555666 14.30924042q0 2.0035169-1.49566163 3.08619733-1.4900808 1.08826127-4.18562025 1.08826127-2.8518026 0-4.44791911-.90409398v-2.01467854q1.03803382.52459774 2.22116914.8259624 1.18313532.30136465 2.28255824.30136465 1.69657141 0 2.61182704-.54134022.92083645-.54692104.92083645-1.65750562 0-.83712405-.73108833-1.43427253-.72550751-.59156767-2.8294793-1.4063684-2.00351688-.74225-2.84622176-1.3003327-.84270488-.55250187-1.25568608-1.2612669-.4129812-.70876503-.4129812-1.68540975 0-1.75237968 1.42869172-2.7680902 1.42311088-1.0157105 3.91215972-1.0157105 2.3160432 0 4.5260507.94315976l-.77573495 1.76912215q-2.15419923-.89293232-3.9065789-.89293232-1.54588908 0-2.33278569.48553195-.78131578.48553195-.78131578 1.33381766 0 .57482518.290203.98222555.29578384.40181954.9487406.77015412.65853758.36833458 2.51137214 1.06035713 2.55043794.92641728 3.44895109 1.86957705.89851315.94315976.89851315 2.36627064Zm11.50679327 2.38301313q.57482518 0 1.11058457-.0837124.54134022-.08929324.85386653-.17858647v1.66308645q-.35717292.1674248-1.04361464.27904135-.68644172.11161654-1.23336277.11161654-4.15771611 0-4.15771611-4.3809492v-8.52750365h-2.05374434v-1.04919547l2.05374434-.90409398.91525562-3.0582932h1.25568608v3.32059207h4.15771611v1.69099058h-4.15771611v8.4326296q0 1.29475186.61389097 1.99235523.61389097.69202255 1.68540975.69202255Zm18.59828037 1.5291466h-1.60727817l-.42972368-2.04258268h-.10603571q-1.07151879 1.35056013-2.13745675 1.82493043-1.06593795.47995112-2.66205447.47995112-2.13187592 0-3.34291537-1.09942292-1.21103946-1.09942292-1.21103946-3.12526312 0-4.3418834 6.9481296-4.55395483l2.43324058-.07813158v-.88735149q0-1.69099058-.72550751-2.49462967-.7255075-.80363909-2.32162403-.80363909-1.79144547 0-4.05726123 1.09942292l-.66411841-1.66308644q1.0547763-.57482518 2.32162403-.89851315 1.2612669-.3292688 2.52811463-.3292688 2.56718042 0 3.80054319 1.13848872 1.23336276 1.1384887 1.23336276 3.64986085v9.78318973Zm-6.5128251-1.5291466q2.03142102 0 3.18665221-1.11058457 1.15523119-1.1161654 1.15523119-3.11410147v-1.29475186l-2.1709417.08929323q-2.58950373.09487406-3.73357326.8036391-1.14406954.71434585-1.14406954 2.22116914 0 1.17197367.71434586 1.79144546.71434585.61389097 1.99235524.61389097Zm26.3165641 1.5291466h-2.1709417v-9.27533447q0-1.75237968-.79805826-2.61182704-.79805826-.86502818-2.49462967-.86502818-2.24907328 0-3.29826875 1.21662028-1.04361465 1.21662029-1.04361465 4.01261462v7.52295479h-2.1709417v-14.33714456h1.76354133l.3515921 1.9644511h.10603571q.66411842-1.06035712 1.86957705-1.64076313 1.20545863-.58598684 2.68437778-.58598684 2.58950373 0 3.89541725 1.25010525 1.30591351 1.25010525 1.30591351 3.99587213v9.35346605Zm12.44018659-1.5291466q.57482518 0 1.11058457-.0837124.54134022-.08929324.85386653-.17858647v1.66308645q-.35717293.1674248-1.04361465.27904135-.68644172.11161654-1.23336277.11161654-4.15771611 0-4.15771611-4.3809492v-8.52750365h-2.05374434v-1.04919547l2.05374434-.90409398.91525563-3.0582932h1.25568607v3.32059207h4.15771612v1.69099058h-4.15771612v8.4326296q0 1.29475186.61389097 1.99235523.61389097.69202255 1.68540976.69202255Z"/><path text-anchor="middle" font-size="48" font-family="Open Sans Condensed" font-weight="700" data-uid="o_eml0li5k7_13" d="M239.74863444 342.29189902q0 12.46166403-4.67129357 19.15376797-4.65665001 6.69210395-13.34027723 6.69210395-8.72755789 0-13.3842079-6.6774604-4.67129356-6.67746039-4.67129356-19.24162929 0-12.44702047 4.67129356-19.09519375 4.65665001-6.63352974 13.44278211-6.63352974 8.68362722 0 13.32563368 6.66281684 4.6273629 6.6774604 4.6273629 19.13912442Zm-26.53411894 0q0 8.58112235 2.16724592 13.07669327 2.16724592 4.49557093 6.35530222 4.49557093 8.43468681 0 8.43468681-17.5722642t-8.3761126-17.5722642q-4.24663051 0-6.41387643 4.48092738-2.16724592 4.48092737-2.16724592 13.09133682Zm56.70029675 11.31946685q0 7.04354923-3.54373995 10.77765538-3.5583835 3.74874969-10.25048745 3.74874969-6.56031196 0-11.15838776-2.57726542v-9.2254387q5.6377681 3.66088838 10.33834877 3.66088838 2.67977029 0 4.02697721-1.46435535 1.36185048-1.4789989 1.36185048-4.02697721 0-2.50404765-1.61079089-4.5687887-1.61079088-2.0793846-5.33025347-4.6273629-3.22158177-2.22582013-4.89094687-4.27591762-1.65472154-2.03545394-2.56262186-4.5687887-.90790032-2.5479783-.90790032-5.9159956 0-6.44316354 3.57302706-10.22120034 3.5876706-3.7780368 9.6354582-3.7780368 5.76956007 0 11.08517 3.23622532l-3.0897898 7.46821228q-1.65472154-.95183098-3.45587862-1.71329576-1.80115708-.74682123-3.85125457-.74682123-2.2697508 0-3.48516573 1.49364246-1.21541494 1.49364246-1.21541494 4.05626432 0 2.5479783 1.4497118 4.4369967 1.46435534 1.8890184 5.09595661 4.29056118 4.90559042 3.29479954 6.85318304 6.72139106 1.93294906 3.42659151 1.93294906 7.81965756Zm39.30055191 13.83815806h-9.37187423l-2.88478004-12.66667378h-13.07669327l-2.87013649 12.66667378H271.669293l12.41773336-50.38846758h12.66667378l12.46166402 50.38846758Zm-23.47361625-20.9402815h9.47437911l-2.67977029-11.67091214q-.23429685-1.05433585-1.08362296-5.33025347-.83468255-4.27591762-1.01040519-5.71098586-.4393066 2.94335425-1.12755362 6.50173775-.68824701 3.54373994-3.57302705 16.21041372Z"/></svg>