<svg xmlns="http://www.w3.org/2000/svg" width="512" height="512" style="overflow:visible" class="fl-svgdocument"><defs transform="translate(-53.4736824 -53.4736824) scale(1.20888)" data-uid="o_eml0l8lil_4"><linearGradient id="a" x1="50%" y1="0%" x2="50%" y2="100%" data-uid="o_eml0l8lil_5"><stop offset="0%" stop-color="#14C5FD" data-uid="o_eml0l8lil_6"/><stop offset="56%" stop-color="#1973DB" data-uid="o_eml0l8lil_7"/><stop offset="100%" stop-color="#14C5FD" data-uid="o_eml0l8lil_8"/></linearGradient></defs><path fill="#141414" data-type="circle" data-cx="50" data-cy="50" data-r="50" d="M109.43757629 255.99999976a49.38177466 49.38177466 0 1 0 98.76354933 0 49.38177466 49.38177466 0 1 0-98.76354933 0" data-uid="o_eml0l8lil_9"/><g data-uid="o_eml0l8lil_10"><path d="M93.5 61.141c-6.237 0-9.575-8.282-13.109-17.05-3.75-9.306-7.629-18.929-15.892-18.929-8.273 0-11.963 11.616-15.818 24.023-3.404 3.244-6.709 6.241-13.188 6.241-6.58 0-9.889-3.672-13.393-7.56-1.279-1.418-2.604-2.88-4.108-4.184l-.03-.039c-.765-1.058-1.578-2.015-2.42-2.847l-.001.001c-.111-.111-.242-.198-.382-.271-2.288-2.835-5.057-4.667-8.659-4.667-.829 0-1.5.671-1.5 1.5s.671 1.5 1.5 1.5c6.236 0 9.574 8.282 13.107 17.05 3.75 9.306 7.628 18.929 15.89 18.929 8.271 0 11.962-11.613 15.816-24.017 3.406-3.246 6.711-6.246 13.18-6.246 6.583 0 9.89 3.667 13.391 7.548 1.284 1.424 2.614 2.89 4.125 4.197l.029.038c.765 1.058 1.578 2.015 2.42 2.847l.001-.001c.11.11.24.197.38.27 2.289 2.836 5.058 4.668 8.661 4.668.829 0 1.5-.671 1.5-1.5s-.671-1.501-1.5-1.501zM64.499 28.163c4.899 0 8.008 5.115 10.829 11.555-2.7-3.437-6.026-5.918-10.834-5.918-3.627 0-6.408 1.555-8.711 3.946 2.327-5.564 5.055-9.583 8.716-9.583zM35.492 58.426c4.178 0 7.232-1.06 9.755-2.595-2.529 4.244-5.443 7.369-9.755 7.369-5.179 0-8.335-3.982-11.22-8.894 2.785 2.327 6.248 4.12 11.22 4.12zm.006 13.411c-4.894 0-8.001-5.105-10.82-11.537 2.694 3.427 6.015 5.9 10.815 5.9 3.631 0 6.416-1.553 8.72-3.943-2.328 5.563-5.056 9.58-8.715 9.58zm28.996-30.263c-4.17 0-7.22 1.059-9.741 2.594 2.528-4.243 5.438-7.368 9.741-7.368 5.181 0 8.342 3.984 11.232 8.899-2.786-2.329-6.251-4.125-11.232-4.125z" transform="matrix(.9497 0 0 .9497 111.334404 208.51509094)" data-uid="o_eml0l8lil_11" fill="url(#a)"/></g><path text-anchor="middle" font-size="48" font-family="Open Sans Condensed" font-weight="700" data-uid="o_eml0l8lil_12" d="M293.57639614 255.9568694q0 24.47540865-9.17468315 37.61907698-9.14592238 13.14366833-26.20105437 13.14366833-17.14141428 0-26.28733667-13.11490757-9.17468314-13.11490757-9.17468314-37.79164155 0-24.44664788 9.17468314-37.50403393 9.14592239-13.02862528 26.40237971-13.02862528 17.055132 0 26.17229362 13.0861468 9.08840086 13.11490758 9.08840086 37.59031622Zm-52.11450113 0q0 16.85380666 4.2565928 25.68336066 4.25659281 8.829554 12.4821708 8.829554 16.56619904 0 16.56619904-34.51291466t-16.45115599-34.51291466q-8.34062104 0-12.59721385 8.80079324-4.2565928 8.80079324-4.2565928 25.71212142Zm111.36257007 22.2320692q0 13.83392662-6.96010446 21.16792098-6.98886522 7.36275513-20.13253355 7.36275513-12.88482147 0-21.9157008-5.06189415v-18.1192802q11.07289344 7.19019056 20.30509812 7.19019056 5.26321948 0 7.9092096-2.87607622 2.6747509-2.90483699 2.6747509-7.90920961 0-4.91809034-3.16368385-8.97335781-3.16368385-4.08402824-10.46891745-9.08840086-6.32736769-4.37163586-9.60609458-8.39814257-3.24996613-3.99774595-5.03313339-8.97335781-1.78316725-5.00437262-1.78316725-11.61934793 0-12.65473538 7.01762598-20.07501203 7.04638674-7.42027665 18.92458153-7.42027665 11.33174032 0 21.771897 6.35612845l-6.06852083 14.66798873q-3.24996613-1.86944955-6.78753988-3.36500918-3.53757375-1.46679887-7.56408046-1.46679887-4.45791815 0-6.8450614 2.93359774-2.38714327 2.93359775-2.38714327 7.96673113 0 5.00437263 2.84731546 8.71451096 2.87607622 3.71013832 10.00874525 8.42690332 9.63485534 6.4711715 13.46003671 13.20118986 3.79642062 6.73001836 3.79642062 15.35824702Zm77.18849314 27.17892029H411.6060704l-5.66587016-24.87805932H380.2568396l-5.6371094 24.87805932h-18.3493663l24.38912637-98.96578278h24.87805931l24.47540865 98.96578278Zm-46.10350183-41.12788997h18.60821315l-5.26321949-22.92232749q-.4601722-2.07077487-2.1282964-10.46891744-1.63936345-8.39814257-1.9844926-11.21669727-.86282286 5.78091321-2.21457868 12.76977843-1.35175583 6.96010445-7.01762598 31.83816377Z"/></svg>