<svg xmlns="http://www.w3.org/2000/svg" width="512" height="512" style="overflow:visible" class="fl-svgdocument"><defs transform="translate(-53.4736824 -53.4736824) scale(1.20888)" data-uid="o_eml0lf53m_4"><linearGradient id="a" x1="50%" y1="0%" x2="50%" y2="100%" data-uid="o_eml0lf53m_5"><stop offset="0%" stop-color="#14C5FD" data-uid="o_eml0lf53m_6"/><stop offset="51%" stop-color="#1973DB" data-uid="o_eml0lf53m_7"/><stop offset="100%" stop-color="#14C5FD" data-uid="o_eml0lf53m_8"/></linearGradient></defs><path fill="#141414" data-type="circle" data-cx="50" data-cy="50" data-r="50" d="M174.28912354 255.99999857a81.71087503 81.71087503 0 1 0 163.42175006 0 81.71087503 81.71087503 0 1 0-163.42175006 0" data-uid="o_eml0lf53m_9"/><g data-uid="o_eml0lf53m_10"><path d="M93.5 61.141c-6.237 0-9.575-8.282-13.109-17.05-3.75-9.306-7.629-18.929-15.892-18.929-8.273 0-11.963 11.616-15.818 24.023-3.404 3.244-6.709 6.241-13.188 6.241-6.58 0-9.889-3.672-13.393-7.56-1.279-1.418-2.604-2.88-4.108-4.184l-.03-.039c-.765-1.058-1.578-2.015-2.42-2.847l-.001.001c-.111-.111-.242-.198-.382-.271-2.288-2.835-5.057-4.667-8.659-4.667-.829 0-1.5.671-1.5 1.5s.671 1.5 1.5 1.5c6.236 0 9.574 8.282 13.107 17.05 3.75 9.306 7.628 18.929 15.89 18.929 8.271 0 11.962-11.613 15.816-24.017 3.406-3.246 6.711-6.246 13.18-6.246 6.583 0 9.89 3.667 13.391 7.548 1.284 1.424 2.614 2.89 4.125 4.197l.029.038c.765 1.058 1.578 2.015 2.42 2.847l.001-.001c.11.11.24.197.38.27 2.289 2.836 5.058 4.668 8.661 4.668.829 0 1.5-.671 1.5-1.5s-.671-1.501-1.5-1.501zM64.499 28.163c4.899 0 8.008 5.115 10.829 11.555-2.7-3.437-6.026-5.918-10.834-5.918-3.627 0-6.408 1.555-8.711 3.946 2.327-5.564 5.055-9.583 8.716-9.583zM35.492 58.426c4.178 0 7.232-1.06 9.755-2.595-2.529 4.244-5.443 7.369-9.755 7.369-5.179 0-8.335-3.982-11.22-8.894 2.785 2.327 6.248 4.12 11.22 4.12zm.006 13.411c-4.894 0-8.001-5.105-10.82-11.537 2.694 3.427 6.015 5.9 10.815 5.9 3.631 0 6.416-1.553 8.72-3.943-2.328 5.563-5.056 9.58-8.715 9.58zm28.996-30.263c-4.17 0-7.22 1.059-9.741 2.594 2.528-4.243 5.438-7.368 9.741-7.368 5.181 0 8.342 3.984 11.232 8.899-2.786-2.329-6.251-4.125-11.232-4.125z" transform="matrix(1.57144 0 0 1.57144 177.42779541 177.42779541)" data-uid="o_eml0lf53m_11" fill="url(#a)"/></g></svg>